<?xml version="1.0" encoding="utf-8"?>
<!-- Generator: Adobe Illustrator 23.0.1, SVG Export Plug-In . SVG Version: 6.00 Build 0)  -->
<svg version="1.1" id="Capa_1" xmlns="http://www.w3.org/2000/svg" xmlns:xlink="http://www.w3.org/1999/xlink" x="0px" y="0px"
	 width="1920px" height="692px" viewBox="0 0 1920 692" style="enable-background:new 0 0 1920 692;" xml:space="preserve">
<style type="text/css">
	.st0{fill:#004136;}
</style>
<path class="st0" d="M290.9,512.8l-1.7,1.5c0,0,1,2.3,1.4,2.4c0.3,0.1,13.9,9.3,13.9,9.3l0.4-1.9l1.8,1c0,0,0.5-3,0.5-3.6
	c0-0.7-3.9-3.9-4.6-5C301.9,515.4,290.9,512.8,290.9,512.8"/>
<path class="st0" d="M30.8,345.7c0-180,146-326,326-326c180,0,325.9,145.9,325.9,326c0,180-145.9,326-325.9,326
	C176.8,671.7,30.8,525.7,30.8,345.7 M50,345.7c0,169.5,137.3,306.8,306.8,306.8c169.4,0,306.8-137.3,306.8-306.8
	c0-169.5-137.4-306.9-306.8-306.9C187.3,38.8,50,176.2,50,345.7"/>
<path class="st0" d="M62.7,345.7c0-162.5,131.7-294.1,294.1-294.1c162.5,0,294.1,131.6,294.1,294.1c0,162.4-131.6,294.1-294.1,294.1
	C194.4,639.8,62.7,508.1,62.7,345.7 M71.5,345.7C71.5,503.3,199.2,631,356.8,631c157.6,0,285.4-127.7,285.4-285.3
	c0-157.6-127.8-285.4-285.4-285.4C199.2,60.3,71.5,188.1,71.5,345.7"/>
<path class="st0" d="M370.1,306.5c2.7-2.8,5.8-4.9,8.3-7.7c1.7-1.9,3-3.9,4.4-6.1c0.5-0.9,1-2.2,3.4-2.8c0,3.6-3.2,8.5-5.2,10.3
	C378.9,302,372.7,305.8,370.1,306.5 M442,347.2c0.1-2,1.9-3.2,2.1-3.9c-0.4-2.9-5-0.1-4.5-4.9c0.8,0.1,1.6-0.3,4.2-0.3
	c1.1,0,2.4,0.5,3.4,0.9l0.5,2.9c0.3,1.6,4.1,0.2,4.2,3c-1.8,2.8-4.2,2.3-7.2,2.3C443.8,347.1,442.9,347.3,442,347.2 M412.8,375.2
	v-2.9c-1.2-0.9-2.5-1.6-3.9-1.6c-3.2,0-6.1,1.8-9.2,1.6c5.8-7.2,14.6-5.9,22-9.2c0.6-1.3,0.2-3.1,1-4l28.5-6.8
	c-1.5,2.9-3.1,4.6-5.9,6.5c-1.5-0.7-3.5-1-4.8-1.7L412.8,375.2z M379.1,348.6c-1.3,0-3-0.2-4.5-0.2c-1.1,0-2.2-0.6-2.1-1.8
	l47.4-19.7c0-1.2-1.2-2-1.2-3.1l3.2-0.8c4.9,0,8.6,2.6,13.1,3.5l0.8,2.7l-26.2,8.3C398.5,341,393.3,345.2,379.1,348.6 M408.7,356.4
	v-2c5.9-3.8,13.8-7.1,21-6.9l1.7-2.5c1.3,0.2,2.6-0.4,3.9-0.4c1.8,0,3.9,0.8,4.7,2.4c-0.7,1.3-1.5,1.1-3.9,1.8
	c-4.9,7.4-14.2,5.8-21.8,6.6C412.6,355.8,410.3,356.6,408.7,356.4 M375.5,240.9c-2.7-1.4-4.6-0.3-7.2-1c-0.5-0.6-0.6-2-0.6-2.7
	c0-2.1,1.4-3.8,3.1-4.9l2.7,0.3l5.8,7.8L375.5,240.9z M261.4,430.5h-1.3c-2.5,0.5-4.2,4.4-7.1,4.8c-0.5-1.2-0.6-1.6-0.1-4
	c0-0.5-0.6-1.7,1-2.7c0.9,0,6.4-4.9,6.3-5c2-0.3,4.1,1.6,4.3,2.6C264.5,428.3,262.3,430,261.4,430.5 M232.8,449.5
	c0.8-1.2,3.1-5.3,4.7-5.3c0.2,0,5.4-6.3,7.2-6.6c0.4,0.3,0.8,0.6,2.9,0.3c0.3,0.4,0.8,0.5,0.5,2.8c-0.6,1.5-3.1,4.4-4.4,5.3
	c0,0-6.2,5.8-10.8,7.1C232.8,452.3,232.2,451.5,232.8,449.5 M220.6,432.8l-0.5-1.9c0-2.9,3.1-4.2,6.2-6.8c0,0,4.8-3,4.8-3.3
	c0.2-0.8,1.8-4.6,2.6-4.6c1.8,0,2.3,1.5,3.4,2.7c0.5,1.3-6.3,10.3-9.7,10.7C227,429.4,222.7,433.6,220.6,432.8 M253.2,407.6v1.2
	c-0.9,1.4-1.9,2.9-3,3.6c-1.6,1.3-6.6,3.5-8.7,3.3c-0.4-0.4-0.6-1.3,0.4-3l0.5-3.1c2.5-0.9,5.2-1.5,8.3-4.3
	C251.4,405.2,252,407.8,253.2,407.6 M231.6,397.5c0-1.7-1-1.9,0.1-4.8c0.8-0.4,1.5-1.1,2.7-2.4c-0.2-1.6,4.1-3.9,5.5-4.1
	c1.8,0,1.9,1.8,3,2.6c-0.3,0.6-0.6,1.3-2.1,2.7c-1.4,1.2-3.3,2.2-4.7,3.2C235.2,395.5,234.5,396.5,231.6,397.5 M209.3,412.2l1.6-1.7
	c1.5-1.3,4.1-1.3,5-2.4l3.2-5.4c0.8-1.6,2.1-3.2,4.2-3.2c1.7,0,2.1,0.2,3.3,1.4c0.1,0.2,0.7,0.9,0.4,2.7c-0.7,1-2.5,2.1-3.5,2.8
	c-2.1,1.3-3.8,3.1-6.1,4.8c-1.7,1.2-3.1,2.8-5.5,4.5C210.7,415.7,210.8,415.1,209.3,412.2 M231.4,370.3v1.2
	c-0.7,0.7-2.4,2.6-4.4,3.1c-0.6,0.4-0.9,1.3-2.9,2.6c-0.7,0.3-2.6,2-3.2,2l-1.8-2.9l0.8-2.5c0-2.5,5-1.7,6.2-4.3
	c0.3-2.1,1.6-1.8,4.2-1.3L231.4,370.3z M198.7,398c-1.7,0-1.2-1.8-1.3-4.7l1.3-2.3c0.3-2.8,5.3-2.1,6.6-4c0,0,2.8-5.7,5.1-6.2
	c1.2,0.1,2.5,1.5,3.9,3.9l-2.4,1.2c-0.3,0.2-1.5,2.9-3.7,4.3c-0.9-0.2-5.5,2.7-7.2,5.4C200.5,395.9,199.9,396.9,198.7,398
	 M218.5,347.5c0.4,0.5,1.2,1.4,2.1,2.9c-0.9,2.9-3.3,3-5,4.5c0,0-3.1,3.3-4.3,3.3c-1,1.4-3.5,3.4-5.5,4.8c-1.3,0.4-1.5,0.1-2.4-0.8
	c-0.1-0.8-0.3-1.3,0.2-2.8l-0.2-2.1c0.8-1.6,3.8-2.2,5.4-2.2l3-2.2C211.8,353.1,216.9,348.6,218.5,347.5 M186,379.5
	c-1.2,0-2-2.1-2.1-3.1c0.4-1,1.3-1.7,2.3-3.6c0-0.4,1.6-2.3,1.7-2.2c2-0.7,2.9-0.4,4.6-1.9c0.3,0.1,0.4-1.5,0.4-2.2
	c0-2.5,5.3-2.2,8.1-1.3l-0.5,2.5c-0.6,1.4-2.3,0.9-3.2,2.9c0,1-4.7,3.9-6.4,5.2C189.6,376.7,188,377.7,186,379.5 M252.3,326.2
	c0.6,0.3,0.5,4.1,0.4,4c-0.8,0.5-2.4,2.4-4,2.7c-0.4,0-2.8,1.2-2.6,2.2c-0.8,1-3.7,4.9-4.9,4.7l-2.9,2c-1.2,0.6-3.9,1.8-4.4,3.1
	c-2.6-0.8-2.1-2.4-1.3-5.1c1-1,4.2-4.5,7.1-5c0.8-0.6,1.5-1.1,2.1-1.9c0.9-1.3,2.1-4.9,3.5-5.3c0.2,0.7,3.8-2.5,4.3-2.5
	C250.3,325,252.4,326,252.3,326.2 M237.7,353.9c-0.2-0.2-0.9-2.4,0.3-3.6c0.5-0.2,1.7-1.6,2.7-2.8c0,0,2.8,2.2,1.3,4.8
	C241.5,352.9,239.3,354.3,237.7,353.9 M202.9,379.4v1.2c-0.6,0.8-2.7,2.7-3.3,2.8c-1.5,0.7-1.8,1.8-2.5,2.6
	c-1.3,0.7-2.2,1.6-2.5,1.8c-0.2-0.2-1.4,0.4-2.6,1l-1.3-3.1c1.5-0.9,2.5-1.3,2.5-2.3c1.3-4.8,4-3.2,6.3-5.1
	C199.5,377.8,201.3,377.2,202.9,379.4 M206.7,378.2c-0.3,0-0.9-2.4-1-2.8c-0.8-0.5-0.9-0.8,0.1-2.6c0.2-0.1,3.6-2.5,4.1-2.5
	c1.1,0,2.7-2.3,3.9-3.2c0-0.4,3.2-0.7,2.6-2.1c0.2-0.7,2.6-3.8,3-3.6c1-1.1,2.4-2.3,2.9-2.7c1-0.2,1.1-0.4,2.8-0.1
	c0.2,0.5,0.6,0.9,1.3,2.7c-0.9,1.2-1.8,1.7-2.3,2.8c-0.5,0.1-8,7.8-8,8.1c0,1.4-2.6,1.9-3.8,2.2c-0.4,0.1-1.7,1.8-2.2,1.8
	C208.4,376.2,208,378.2,206.7,378.2 M214.5,395.3l0.4,1.2c-0.7,1-1.4,2.1-2.2,3.1c-2.5,2.9-8.4,6.9-10.6,6.6
	c-0.4-0.5-0.6-2.3-0.6-2.3c1-0.9,5.6-6.1,9.3-8.2C211.3,395.1,212.5,394.3,214.5,395.3 M218.1,394.5l-1.3,0.6
	c-0.4,0-1.5-2.7-1.7-2.8c-0.3-0.6-0.3-0.6,0.8-2.4c0.4-0.3,2.9-2.6,2.9-2.6c0.8-0.4,1.7-0.6,3.6-2.2c0.8-0.7,1.9-1.2,2.8-1.8
	c0.3-0.8,3.6-4.9,4.2-4.7c1-1,2.1-1.8,3-2.7c0.2,0.2,1.3-0.5,3.2,0.5l1,2.6c-1,0.4-2.1,3.4-3.8,3.9c-0.4-0.1-3.5,1-4.3,2.3
	c-4.9,1.3-3.5,8.3-7.6,8.3C220.4,393.3,218.2,393.8,218.1,394.5 M235.7,401.7l0.9-1.2c1.4-1.3,2.5-1.7,3.3-2.5c1-1,3.6-3.1,4.2-3.9
	c1.6,0,3.4,0.3,3.4,2.1c-0.6,1.9-3.4,4.2-4.9,5.4c-2.7,1.6-2.9,4.2-4.2,4.7C237.5,406,236.6,403.6,235.7,401.7 M233.9,407.7
	c0.8,0.9,0.9,1.2,0.1,3.5c-2,1.1-6.3,4.6-6.6,5.2c-3.7,0.6-4.8,6-7,6.5l-3,1.5c-0.9-0.3-2-0.8-2.4-0.3c-1.7,0.2-1.6-1.8-0.4-3.1
	c0.3-2.3,3.9-3.5,5.4-4.7c1.9-0.5,3.1-1.8,4.1-4.3C225.7,409.7,230.5,407.6,233.9,407.7 M239.1,431.9c-0.4-0.8-0.9-1.5-1.1-2.5
	c-0.5-1.5,3-4.9,3-4.9c2.5-0.8,4.2-2.5,6.4-3.8c0.4-0.3,3.9-4.5,4.3-4.4c0.6-0.9,3.9-1.9,5-1.9c1,0,2.3,0.4,2.5,1.5
	c0,1.5-1.9,3.4-3,4.2c-0.4-0.3-7.6,6.2-7.7,6.5c-1.1,1.4-2,2.7-3.7,3.5L239.1,431.9z M236.9,432.8c0.9,0.9,1.6,1.7,1.4,2.5
	c-0.7,1-4.6,2.6-4.6,2.6c-0.8,0.8-6.1,5.1-6.2,5.2l-3.1-0.4c-0.5-0.9-0.9-1.9-0.9-2.6c0-1.4,1.6-3.7,2.9-4.4l3.5-1
	c0.4-0.9,3.6-2.4,4.4-2.4L236.9,432.8z M175.2,330.8c7.7-93.4,85.9-166.7,181.3-166.7c100.5,0,181.9,81.4,181.9,181.9
	c0,30.6-3.3,52.4-16.8,78c-0.8,5.7-1.2,21.1-1.2,27.1c0,0-0.5,10.6-8.3,30c-2.7,6.7-6.6,11.9-12.5,18.3
	c-10.5,11.3-19.7,14.7-36.3,21.1c-1,0.4-9.7,2.2-9.7,1.6c-0.8-0.6-4.4,0.2-4.4,0.2c-6,1.4-6.4,3.5-13.1,5
	c-6.2,1.3-13.4,0.6-20.5,2.4c-13.7,3.5-19.8,6.1-31.3,10.5c-5.2,2-12.6,5.9-17.4,8.1c-6.4,2.8-10.2,4.6-15.2,7.8
	c-3.1,1.9-10.3,5.2-16.6,5.2c-4.9,0-9.4-10.3-12.3-11.7c-12.7-6.7-23.6-30-24.7-33.5c-28-8.8-32.5-17.2-56.5-33.2
	c-0.3,0.4-1.9,1.7-2.9,2.7c-3.2,1.7-9,5-9,5l-40.4-53.2l-25.7-38.1l-24.2-39.3l17.8-13.5C163,340.7,170.2,335.6,175.2,330.8
	 M175,394.4l1.9-2.4c-4.3-4.7-11.3-9.4-16.5-14.1C164.9,383.8,170,389.1,175,394.4 M160,368.1c0,0,7.3,5.8,16.9,13.9
	c3.7,3.3,9.5,11.1,12.2,15.3c17.4,27.9,30.5,52.7,49.8,79.3h2.2c9.7-5.7,14.2-16.7,23.8-22.7c-1.1-3.5-1.8-7.4-1.8-11
	c0-11.3,5.1-17.4,15.4-21.9c-1.2-1.4-3.9-1.8-4.5-2.6c-1.7-2.1-0.4-6.7-3.9-7.1c-0.7-1.3-1-2.8-1-4.3c0-4.5,7.5-9.8,7.5-14.4
	c0-1.1-0.7-6-2.5-6c-9.4,0-13.5-21.5-13.5-28.2c0-2.3,0.5-4.7,1.7-6.7c-1.2-0.7-1.5-7.3-2.9-7.3c-2.3,0-3,2.4-4.4,2.8
	c-4,1.3-7.8,1.8-11.7,3.7c1.8-2.7,13.2-12.1,16.2-13.5l-1.4-17.3c-6.4-6.3-9.3-20.6-18.7-23.2c-0.8,20.7-5.8,22.5-25.5,30.1
	c12.5,17.6,22.2,36.6,33.5,54.8c8.1,13,17.9,24.5,23.7,38.8l-7.3-3c-8-22.8-38.4-67.8-53.8-87.8C209.9,345.8,160,368.1,160,368.1
	 M180.8,399.6l1.9,3.6c1.4,1.7,2.6,3.4,3.8,5.2c14.5,21.4,26.7,45.5,43.9,64.9C212.5,446.9,197.1,413.5,180.8,399.6 M153.3,377.9
	c12.2,19.8,59.7,88.8,76,105.5l4,0c-6.2-4.3-11-10-15.6-16c-12.2-15.9-20.2-30.5-22.1-33.5C192.6,429.1,155.1,380.3,153.3,377.9
	 M236.9,487.1c18,16.9,44.6,30.9,68.8,37.5c-0.9-1.7-1.6-2.7-2.4-4.3c-1.3-0.5-10.7-3.3-11.6-4c0,0-4.7-7.9-7.3-13.9
	c-13.8-6.7-26.6-15-37.9-24.9l-7.3,7.9c0-0.1-0.8,0.7-1.6,1.3L236.9,487.1 M331.1,535.4c2.7,12.8,11.3,22.5,13.7,1.4
	c1.7-4.3,2.8-8.3,6.1-12.4c-1.9-2.2-5.6-1-6.1-2.7c2.4-5.4-0.9-9.5,0.3-16.4c3,0,11,14.9,11,17c0,2.4-0.5,4.6-1.8,6.8
	c3.5,2.4-1.6,3.8-1.4,6.2c4.4,0,7.3-11.4,10.2-13.5c7.3-5.3,20.8-4,29.2-7.9c-0.9-0.8,0.4-1.6,0-3.2l-4.4,0.9c0,2.1-1.8,4-6,4
	c-2.1,0-3-1.6-4.9-1.6c-1.9,0-4.9,2.2-9.5,0.5c0.5-1,1.5-1.5,3.8-3.3c-3.1,0-6.7,1.1-9.3,1.1c-3.4,0-1.2-4.4-5.6-4.4
	c-8.7,0-7.1-5-13.6-7.3l-1-2.8c-0.3-0.8,2.3-1.5,2-2.7c-0.8,0-2.1,1.4-2.9,1.4c-2.7,0-2.6-3.7-2.6-5c0-9.4-1.5-17.4-2-27
	c0.7,0,1.3-0.4,2-0.4c8.2,0-1.3,20.5,11.2,27.6c0.1,6.7,9.7,10.9,15,15.8c5.1-0.3,7.6-3.3,10.4-5.8c5.3-1.6,13.3-3.2,19.1-3.2
	c3,0,5.7,0.2,8.5,0.7c-5.2,5.2-15.5,2-22.8,6.5c11.2-2.4,26-5.1,37.6-5.1c7.9,0,16.8,0.5,25.7-3.3c-3.9-4.6-16.5-7.8-23.5-9.5
	c1.3-0.3,2.6-0.6,4-0.6c15.6,0,31.1,4.2,46.8,4.6c0.6,0,4.3-2.1,4.3-2.6c0-7.8,12.5-21,20.4-28.6l2.4,1c2.2-1.3,8.3-5.5,8.3-7.7
	c0-1-4.7-0.4-5-1c-0.4-1.1-0.7-2.3-0.7-3.4c0-9.6,9.2-16.7,9.2-25.3c0-1.4-0.4-2.8-1-4.1c-9.9-4.7-6.8-15.9-14.2-22.2l-2.6,0.3
	c-1.7,3.7-2.3,7.8-2.3,11.7c0,12.7,4.6,29-11.9,37.5c-10.4,5.3-9.8,6.1-21.5,6.1c-18.3,0-37-4.9-52.4-11.4l0.7-2.3
	c1.2,0.4,2.9-0.3,4.2,0.1c1.9,0.7,1.3,1.6,4.3,1.6c1.1,0,2.6,0,3.6-0.2c2.5,0.9,17.3,6.4,19.2,5.8c0.8,0.7,3.8,2.6,4.9,2.6
	c3.5,0,12.1-1.2,16.2-1.6l3.7,2.3c17.3,0,11.5-29,20.9-29c0.9,0,2.8,1.4,3.4,0.5c-1-2.1-1.5-4.3-1.5-6.6c0-4.5,1.4-8.9,1.4-13.3
	c0-2.2-0.3-4.2-0.9-6.2c-4.1-1.8-8.8-4.2-13.8-4.2c-1.5,0-2.9,0.1-4.4,0.4c-15.3,11.2-25.6,25.2-47.9,30.1c1.5,1.3,28.3,3,32.3,3.4
	c0.3,2.2,3.8,3.2,6.5,3.2c4.5,0,9.3,6.7,9.3,9.7c0,1.3-1.4,2.4-3.6,2.4c-9.4,0-2.3-8.5-22.1-8.5c-5.9,0-11.7,0.5-17.5,1.1
	c-0.5,1.2-2.4,0.8-2.1,1.7c-5.2-1.1-11.5-4.7-16.9-4.7c-2,0-3.9,0.1-5.7,0.8c0.3,1.7,2,3.1,1.9,6.1c-10.7-2.3-20.7-8.6-32.2-8.6
	l-3,0.7c0,3.3,12.1,6.7,14.8,7.9v2.2c-1.2,0.5-2.2,0.9-4.9,0.9c-2.9-1.2-27.4-10.7-28.8-10.7c-1.5,0-3.2,0.1-4.9,2.3
	c0.7,0.9,2.5,0.5,3.7,0.8c10.8,2.1,12.8,9.2,18.4,15.1c4.4,4.7,11.2,7.4,17.4,11.1c4.5,12,19.7,17.4,31.4,25.2
	c-1,2.2,0.8,4.9-4.2,5.3c-5.8-1.7-25.8-8.4-25.8-13.7c0-1.2,1.8-1.9,3.2-2.3c-0.7-0.4-8.5-8.3-8.5-9c0-1.4-0.8-1.8-3-2.8
	c1.1,3.7-0.9,5.4-0.9,8.5c0,0.9,0,1.8-0.3,3.7c-9.5,0.8-5.3-5.6-7.9-7.5c-7.4-5.2-19.8-30.2-28.6-29.9c0,0.2,2.3,1.7,2.7,2.1
	c2.7,3.1,7.5,7.3,7.5,11.1c0,0.8-0.2,1.5-0.5,2.3c1.2,3.1,4.1,5.5,8.1,7.1l-1.5,2.1c-14.8,0-9.2-18.7-26.2-23.3
	c3.3,15.4-2.9,30.8-2.9,46.2C322.2,503.3,325.7,518.2,331.1,535.4 M360,537.2c2.4-0.1,4.8-0.2,7.2-0.3c3.2-2.6,5.1-5.9,9-9.1
	l-3.6,0.3C369.7,531.4,363.3,533.9,360,537.2 M517.5,413c9.1-21.1,15.8-43.7,15.8-68.4c0-97.5-80-175.2-176.5-175.2
	c-89.5,0-163.3,67.3-173.5,154c3.9-3.7,7.7-7.1,11.2-10.4c13.7-76.8,81.6-135.2,163.3-135.2c91.5,0,165.8,73.3,165.8,163.8
	c0,10.9-1,21.5-3.1,31.7l8.6,14.7C528,407.2,522.7,414.2,517.5,413 M147.2,368.1l3.1,0.3c3.1-2.1,32.6-23.8,33.5-24.4
	c2.6-1.8,6.4-3.9,6.7-6.4L147.2,368.1z M522.6,389.1l1.3-0.5c-4.3-11.5-16.5-19.5-18.9-31.5c-5.8-1.5-11.5-6.7-11.5-12.8
	c0-1.6-0.1-3,2-3c7.9,0,21.5,26,22.5,27.5c-0.5-7.5-3.5-14.6-3.5-22.2c0-3.7,2.3-7.8,4.9-10.2c-3.6-8.2-4.1-1-4.1-16.8
	c-8.5-9.8-8.6-17.8-21.6-24.6c-1.4-0.7-0.8-3.7-2-4.4l-22.7-3.9c1.3-4.6,20-4.6,21.3-4.8l-8.8-8.7c-4.5,4.7-7.2,9.2-14,11.1
	c-0.2,1-1.9,3.2-1.7,4.1c-11,2-22.2,3.8-32.6,8.2c-20.9,8.8-43.1,28.1-67.2,28.1c-1.6,0-4.3-0.3-3.1-4.1
	c31.7-2.5,95.4-46.1,101.3-46.1c2.8,0,4.5,2.3,8,3.9l-2.1-2.3c-1.7-8.4,9.6-6.7,9.6-14l-12.5-9.7l-4.6-12.6
	c-1.4-0.4-2.9-0.9-4.4-0.9c-1.7,0-3.7,0.6-6.4,2.2c0.4,1.8,3.9,2.5,3.9,4.5c0,9.8-12.3,35.6-22.1,41l-26.9,14.9
	c-9.1,5-33.4,15.9-43.3,15.9c-0.8,0-4.7,0.3-4.7-1.5c0-1.2,1-1.6,1.7-2.5c22.6-4,42.5-14.8,61.7-27.9c0-4.5-3.4-12-8.5-12
	c-4.9,0-8.5,0.6-8.5-6.1c0-1.6,0.1-2.8,2.1-2.8c1.5,0,6.5,2.8,6.5-2.6c0-3.7,2.5-6,1.3-8.7l-2.8,0c-2.6-0.3-5.4-1.1-8.5,0.2
	l-0.7,4.2c-0.5,2.8-2.6,2.1-2.6,5.5c0,2.3,1.3,4.6,1.3,8.1l-3.8,1.7c-2.3,5.3-3.1,12.4-10,13.4l-1.4-2.3c0-2.5,4.8-2.8,4-6.2
	c-1.4,0-5.5,1.4-6.4,0.6c-2.8-2.4-2-12.8-4.4-13.8c-8.9,0.2-5.9-5.3-11.4-3.7c-3.3-0.6-1.8-6.5-6.7-6.5c-11.9,0-12.3-8.7-23.3-8.7
	c-2.7,0-5.6,0.1-8,1.1c-0.4,1.2-0.5,2.4-0.5,3.6c0,4.4,2.3,8.8,2.3,11.9c0,1.4-1.3,2.7,1.1,2.7c4,0,14.5-1.2,14.5,5.6
	c0,2.3-3.6,3.6-4.6,5c-0.8,1-0.5,5.9-2.2,5.9c-2.4,0-4-7.4-7.7-9.6l0.7,19c2.4,0,2.6-3.5,8.7-4.5c0-0.5-0.4-4.2,0.4-4.2
	c0.2,0,4.1,7.1,2.7,9.4c-2.2,0-4.9-3-4.9,1.7c0,1.5,1.6,2.1,3,2.1c1.1,0,7.7-1.8,7.7,0.4c0,4.4-5.2,1-5.2,3.9c0,4.3,4.1,0.9,4.1,5.6
	c0,3.9-1.1,8.5,7,8.1c0,4.2-3.7,4.1-7.3,5.7v2.3l3,0.7c-1.1,2.4-0.3,5.8,3.1,5.8c31.7,0,63.7-12.3,90-29.3c4.2,1,7.9-0.9,12-0.9
	c2.7,0,5.4,0.5,7.3,2.6l1,3.1l-2.3,1.8c2.3,1.8,5.3,2.7,8.2,2.7c7.6,0,14.6-5.5,22.2-5.5c12.4,0,14.4,19.5,16.9,27.9
	c0.8,2.4,5.2,6.1,5.2,7.2c0,1.2-4.8,3.1-5.9,3.1c-6.1,0-6.3-13-8.2-14.1h-3.8c-3.9-3.1-15-4-15.4-9.7c-11.5-3.8-22.7-5.1-34.8-5.1
	c-29.4,0-28.7,14.4-39.9,14.4c-1.9,0-8.5-0.8-9.7,0.7c-1.1,1.6,0.3,4.2-1.3,5.4c-5.4-1.3-12-1.6-16.5,2.5h-24.2
	c1.2,11.8,6.9,7.6,13.4,13.5c-1.3,1.7-7.3,5.2-9.2,5.2c-10.2,0-7.6-18.8-19.5-18.7l10.3,24l-2.5,0.1c-3,0-8.3-7.9-10.5-10.2h-2.1
	l6.9,17.3l17,11.4c0,6.7,11.7,6.1,17,6.1c14.8,0,28.9-7.2,43.9-7.2c4,0,7.6,1.9,11.6,1.9c9.9,0,18.4-7,28-7c3.5,0,6.1-1.6,9.4-1.6
	c9.6,0,17,9.6,27.3,9.6c1,0,2.2-0.4,3.3-0.6c3.3,2,3.3,7.2,5.3,7.2C514.9,386.2,512.9,382.8,522.6,389.1 M380.8,251.6h1.8
	c0-2.7,1.9-3.2,1.9-5.3c0-1.9-1.4-3.8,1-6.5c4.4,3.7,1.6,4.2,3.4,7.8l2.2-1.1c-1.6,0,0.5-3.7,0.7-3.9c4.3,0.8,7.9,6.7,12.7,6.7
	c4.8,0,6.4-1,11.4,1.4c0.2-1.3,0.4-2.8,0.4-4.1c0-4.6-1.9-9-3.3-13.4c-1.3-4-1.7-8-3.8-11.9c-5.8-10.7-22.4-15.8-33.9-15.8
	c-14.9,0-32.9,7.4-40.8,20.2c4.7,0,12.8-2.5,18.4-3c2.9,1.3,4.2,5.6,8.3,5.4c-0.1-0.7,1.1-2.6,1.4-3.3l2.7,0.4
	c-0.5,7.3-0.3,14.4-1.5,21.7c1.2,0.3,3.3-1.9,4.7-1.9c3.2,0,2.8,3.7,4.4,5c0.9,0.8,2.4,0.2,3.5,0.4
	C378.1,250.9,378.3,252.7,380.8,251.6 M309.6,434.3l2.1-1.4c-2-2.2-6.2-6.7-6.2-9.7c0-8.5-0.4-17.1-1.1-25.9c0-1.3,2.1-2.3,2.7-3.4
	c0.2-0.4,1.1-10.6,1.1-11.7c0-6-0.3-9.4-4.9-14.4c-0.8,2.3-0.2,10.9-3.5,10.9c-1.2,0-8.5-6.4-8.5-6.7c0-10.5,3.9-21.3,3.9-31.7
	c0-4.1-5-6.9-8-8.7c-0.7,0.9-1.1,3.5-1.1,4.5c0,7.3,4.5,4.2,4.5,6.4c0,1.4-3.2,1-4.1,1.2c-1.1,0.2-1,2.8-3.2,2.8
	c-0.3,0-2.5-1-2.5-0.2c0,1.2,1.7,2.3,1.5,4.9c-2.9,0-10.3-9.8-13.5-10.6l-6.3-1.7c-1.5-0.4-2.2,1.8-1.9,3.7
	c4.9,3.6,8.1,6.3,10.9,11.8c0.8,1.6,1,9.6,2.9,13.6c3.8,8.1,5.9,4.8,9.1,9.2c2.5,3.1,1.6,7.5,2.8,10.9l7.2,6l5.2-11.7l3,0.5l0.8,3.8
	c-3.8,8.6-8.3,17.9-8.3,27.5C294.4,426.9,299.7,429.9,309.6,434.3 M514.8,436.2c1.6-2.3,2.9-6,2.9-6c0.2-1.1,0.2-4.2,0.2-5.3V420
	c0-3.6-0.9-7-2.3-10.3L514.8,436.2z M345.8,425.3l3.3-19.9l-2.4,1L342,424C342.2,424.2,345.2,425.2,345.8,425.3 M400.7,418.4
	c3.6-0.7,7.4-1.7,10.3-3.5c5.7-3.4,8.9-15.8,15.4-15.8l2.4,1l-3.3,8.6c9.3-1.8,15.7-15,21.6-21.6c-4-0.2-8.8-0.3-12.9,0
	c-2.3,1.8-4.7,3.3-8.3,7.2c-5.2,4.5-11.9,7.5-15,14.1C407.5,409.3,400.6,413,400.7,418.4 M334.8,417l1-0.2l2.8-10.8l-2.1-2.1
	c-1.4,1.4-2.5,4.3-2.5,6.3v2.5C334,414.2,334.3,415.7,334.8,417 M324.2,408.7c2.3,0,2.3-3.9,2.6-4.8c-1.4-1.5-2.4-3.8-2.4-6
	c0-4.3,2.6-8.5,2.6-12.3c0-1.7-0.1-3.4-2.8-4.3V408.7z M368.4,407.7h1.4c1.6-2.4,2.4-4.6,2.6-7.6c0.1-1.3-0.1-2.6,0.2-3.8
	c-0.8,0.7-1.6,1.6-2.1,2.5C369.5,400.3,368.4,404.2,368.4,407.7 M356.8,407.4h1.4l6.9-17.2l-7.6,7.5c-0.7,0.7-1.6,2.9-1.6,3.9v2.6
	C355.9,405.1,356.2,406.7,356.8,407.4 M275.9,406c0.9-1.2,2.2-1.8,2.1-3.7l-2.1,1.6V406z M383.3,401.2c0.6-0.1,1.1-1,3.7-2.6
	c0.3-0.7,0.5-2.1,0.5-2.8c0-1.4-0.2-2.8-0.5-4.1L383.3,401.2z M339,400.1c3.1-2.6,4.7-3.2,5.4-7.5c-0.2,0-1.7-1-3-1.5l4.9-14.5
	l-3.1,1.6L339,400.1z M515.7,400.6c1-3-2.4-6.2-3.5-7.7c-0.1,0.1-0.4,0.9-0.4,2.8c0,0.3,0.3,1.5,1.3,3.4
	C514.2,399.6,514.8,400.1,515.7,400.6 M417.5,393.1c3.3-2.4,9.1-5.5,7.1-9.6c-0.2,0.3-2,1.2-2.2,1.4c-0.8,0.9-1.4,2.2-2.1,3.2
	C419.4,389.2,418.4,390.2,417.5,393.1 M314.5,389.1l1.5-0.5c0.3-1.1,0.8-2.2,1-3.4c0.5-3,0-7,1.9-9.6c-2.2-3.3-2-1.6-3-2.3
	c-0.6,1.2-1.1,2.6-1.1,3.9c0,1.9,0.4,3.7,0.4,5.5v2.7C315.3,386.6,314.9,388.1,314.5,389.1 M330.8,370.9l2.9-2.3
	c-0.2-0.7,0-1.4-1.4-2.5c-0.7,0.3-1.4,0-2.1,0.1c-0.6,0.1-1.8,0.6-1.5,2.4L330.8,370.9z M214,320.3c4.7-0.2,17.9-8.2,20-14.5
	C227.3,310.6,220.2,314.9,214,320.3 M273.6,325.2c-0.9,0-3,0.2-5.6,2.5c-2.5,1.9-3.9,2.1-5.6,4.9c-0.4,0.6-0.8,1.4,0,2.7
	c1.4,0,1.9-1.6,4.1-3.6c2.7,0,4-3.4,5.3-4.1c1.3-0.8,2.2-0.4,3.5-0.9c0.5,0.3,3.4-0.1,3.7-0.6C278.2,325.6,274.5,325.2,273.6,325.2
	 M283.9,324.6c4.9-1.8,8.7-3.2,14-3.2c2.8,0,6.3,1.1,9,0.1c8.2-2.9,20.2-8.2,37.4-9c-1.6-1.2-15.6-2.3-17.5-2.3
	C311.1,310.1,296.5,315.2,283.9,324.6 M221.2,308l11.7-7.8c1-0.5,1.5-0.4,1.4-2.7c-0.4,0.1-1,0.3-2.3,1.4L221.2,308z M425.1,278.2
	l1.9-1.2c0-0.9-0.9-1.9-1-4.6c-0.2,0.1-1.4,1.3-2.1,2.6C423.9,275.3,424.3,276.9,425.1,278.2 M387.8,252.5c-0.6,0.5-1.7,2.4-1.7,3.2
	c0,0.7,3.2,1.9,3.2,5.4c0,3.5-1.6,6.6-1.3,11.3c2.3,0.5,3.7-8.4,3.7-9.6v-2.5C391.8,258.3,390.8,253.4,387.8,252.5 M431.4,271
	l10.2-5.6l-2.5,0.3C436.2,266.5,434.9,268.2,431.4,271 M425.6,265.4l11.5-9.8c-4.1,0.4-5.5,1.3-8.3,4.1c-1,1-2.2,1.9-3.2,2.9V265.4z
	 M442.4,259.7l3-0.6l1.4-2.8c0-0.4-1.1-2.9-1.4-3.4l-3.4,0.4c0.2,0.2,1.6,0.2,3.4,2.1c-0.4,0.7-0.8,1.5-1.4,2.2
	C443.6,258,442.9,258.6,442.4,259.7 M355.7,247.1l1.1-1.1c1.6-2.3,2.1-5.5,1.9-7.9l-3.3,0.8c-0.8,0.9-1.3,2.1-1.3,3.3
	C354.2,243.2,355.2,246.5,355.7,247.1 M345.8,234.9l1-0.4c0.8-0.5,1.9-1.2,2.2-2l0.1-2.3l-2.4,1.5L345.8,234.9z M324.2,435.4
	l2.3-0.4c-0.7-4.1-2.1-7.7-4.6-11.1c-1.1-1.5-2.4-2.7-3.5-4c-0.7,3.3,0.8,6-1.5,9L324.2,435.4z M291.1,507.6l-1.1-23.9
	c-1.2-0.1-2.3-1.6-2.3-3.5c0.9-1.2,2.8-2.1,4.4-2.1c3.2,0,6.3,1.4,10.7,1.3l-0.4-3c-3.5,0.1-7-0.6-10.4-0.6h-3.3
	c-2.1,0-5.3,0.3-5.3,2.9C283.4,489.5,288.2,497.1,291.1,507.6 M495.4,490c7.7-6.2,15-10.8,17.9-20.4l-16.1,16.6
	C496.8,486.7,496.9,488,495.4,490 M308.4,478.2l1.7-0.3l2.8,0.1c0.3,0,1-0.4-0.1-2.2l-2.1-0.1l-2.2,0.4V478.2z M281,462.5
	c0,2.8,17,6.5,20.8,6.5c4,0,7.7-1.4,11.7-1.4c0.7,0,1.5,0,2.2,0.3c1.1-1.9,2.7-6.2,2.7-8.3v-3.6c0-5-4.3-9.8-6.6-14l-4.5-2.4
	c-5,0-9.8,1.9-14.8,1.9c-7.5,0-15-3.9-21.7-3.9c-0.7,0-1.2,0.1-2.2,1.6c0,4.9,22.3,9.3,22.3,11.1c0,1.1-2.3,2.6-3.3,2.6
	c-2.7,0-10.9-2.9-13.5-2.6c0,0.8,1.9,2.9,2.6,3.4c4.4,2.8,7.6,3.7,12.8,5.1c0.9,0.3,4.8,3.5,3.2,5.3
	C289.1,463.9,285.2,463.2,281,462.5 M286.9,434.3l1.9,1.4l5.2,1c0.6,0.1,1.6-1,0.8-3l-3.4-2.1l-2.9-0.2
	C287.6,431.8,287.6,432.2,286.9,434.3 M480.3,433.4c2.9-0.6,3.8-3.2,3.8-6c0-1-0.5-2-0.4-3L480.3,433.4z M316.4,525.2
	c1.1-1,1.5-2.2,1.6-2.7c0.1-0.7-0.2-1.5,0.1-2.2c-0.9-0.3-1.4-0.9-3.2-0.1C315.2,521.7,315.2,524.1,316.4,525.2"/>
<path class="st0" d="M152,501l0.3,1l-11.5,2.8L124,477l1-0.6l0.8,1.3c0.9,1.5,2,2.3,3.4,2.4c0.8,0,2.2-0.6,4.3-1.8l23.1-13.9
	c2.3-1.4,3.5-2.4,3.7-3.3c0.4-1.2,0.2-2.4-0.7-3.8l-0.8-1.3l1-0.6l9.8,16.2l-1,0.6c-1.1-1.9-2.1-3.2-2.9-3.7
	c-0.8-0.5-1.6-0.7-2.4-0.7c-0.7,0.1-2.2,0.7-4.3,1.9l-22.5,13.6c-1.5,0.9-2.4,1.6-2.8,2.2c-0.2,0.5-0.3,1-0.2,1.5
	c0,0.5,0.8,1.9,2.2,4.2l1.6,2.7c1.7,2.8,3,4.5,4.1,5.4c1.1,0.8,2.4,1.5,4,1.8C147,501.5,149.2,501.4,152,501"/>
<path class="st0" d="M195.5,507.3l0.9-0.8l9.9,11.1l-0.8,0.7l-1.1-1.2c-1.1-1.2-2.5-1.7-4.1-1.4c-0.8,0.1-2,0.9-3.7,2.5l-12.6,11.3
	c-3.1,2.8-5.9,4.7-8.1,5.7c-2.3,0.9-4.8,1-7.7,0.3c-2.8-0.7-5.7-2.6-8.5-5.7c-3-3.4-4.8-6.5-5.1-9.3c-0.4-2.8,0.1-5.5,1.4-8
	c0.9-1.7,3.2-4.3,7-7.7l12.2-10.9c1.8-1.7,2.9-3.1,3-4.2c0.2-1-0.3-2.2-1.4-3.4l-1.1-1.2l0.8-0.8l12.2,13.4l-0.9,0.8l-1.1-1.2
	c-1.1-1.3-2.3-1.8-3.7-1.6c-0.9,0.1-2.2,1-3.9,2.5l-13.6,12.2c-1.2,1.1-2.5,2.4-3.9,4.1c-1.3,1.6-2.2,3.1-2.5,4.5
	c-0.4,1.4-0.3,2.8,0,4.4c0.5,1.6,1.4,3.2,2.8,4.7c1.8,2.1,3.9,3.5,6.2,4.3c2.3,0.8,4.5,0.9,6.4,0.3c1.9-0.7,4.6-2.5,7.9-5.5
	l12.6-11.3c1.9-1.7,2.9-3,3-3.9c0.2-1.2-0.4-2.3-1.4-3.6L195.5,507.3z"/>
<path class="st0" d="M212.6,546.3l-0.8,16.1c-0.2,4.5-0.2,7.5,0.1,9c0.4,1.5,1.3,2.9,2.7,4l-0.7,1l-14.3-10.8l0.7-1
	c0.9,0.8,1.7,1.2,2.3,1.3c0.4,0.1,0.9,0.1,1.3,0c0.4-0.2,0.8-0.4,1-0.7c0.3-0.4,0.5-0.8,0.6-1.3c0.1-0.4,0.2-1.4,0.3-3.2l0.8-12.9
	l-13.8,3.7c-1.4,0.5-2.3,0.8-2.7,1c-0.4,0.2-0.7,0.4-1,0.8c-0.5,0.5-0.5,1.1-0.3,1.8c0.1,0.7,0.9,1.5,2,2.5l-0.7,0.9l-11.9-8.9
	l0.7-1c0.9,0.5,1.8,1,2.6,1.1c1.4,0.3,2.7,0.5,4.2,0.5c1.4,0,3.3-0.4,5.7-1l15.4-4l0.7-14.6c0.2-4,0-6.8-0.7-8.6
	c-0.6-1.8-1.7-3.3-3.3-4.6l0.6-0.9l15.5,11.7l-0.7,0.9c-1.4-1-2.4-1.4-3.2-1.4c-0.7,0-1.3,0.3-1.6,0.7c-0.5,0.6-0.8,1.8-0.8,3.6
	l-0.7,11.5l11.6-3c1.4-0.4,2.2-0.7,2.7-0.9c0.4-0.2,0.7-0.4,1-0.8c0.3-0.3,0.4-0.8,0.4-1.1c0-0.5-0.2-1-0.4-1.4
	c-0.2-0.5-0.9-1.1-2.1-2l0.7-0.9l11.9,8.9l-0.7,0.9c-1-0.6-1.9-1.1-2.6-1.3c-1.3-0.3-2.4-0.4-3.6-0.3c-1.2,0-3.2,0.4-5.8,1.1
	L212.6,546.3z"/>
<path class="st0" d="M270.2,561.1l-5.9,15.4l8.6,3.3c2.2,0.9,3.8,1,4.8,0.7c1.4-0.5,2.5-1.8,3.5-4l1.1,0.4l-5.2,13.6L276,590
	c0.4-2,0.6-3.3,0.6-4c-0.1-0.8-0.5-1.5-1.1-2.2c-0.6-0.7-1.8-1.3-3.4-1.9l-8.6-3.3l-4.9,12.9c-0.6,1.7-1,2.8-1,3.2
	c0,0.4,0.1,0.8,0.5,1.2c0.3,0.4,1,0.7,2.1,1.2l6.6,2.5c2.2,0.9,3.8,1.3,5,1.4c1.1,0.1,2.3-0.2,3.5-0.7c1.7-0.8,3.6-2.1,5.7-4
	l1.1,0.4l-7.1,8.5l-30.1-11.6l0.4-1l1.4,0.5c0.9,0.4,1.9,0.5,2.8,0.4c0.8-0.1,1.4-0.4,1.9-0.9c0.4-0.5,1.1-1.7,1.8-3.6l9.7-25.4
	c0.9-2.5,1.3-4.1,1-4.9c-0.4-1-1.4-1.9-3-2.5l-1.4-0.5l0.4-1.1l30,11.6l-2.8,8.8l-1.1-0.5c0.4-2.2,0.5-3.8,0.3-4.7
	c-0.2-1-0.7-1.9-1.5-2.6c-0.7-0.5-2-1.2-3.9-2L270.2,561.1z"/>
<path class="st0" d="M327.3,574.7l-1.4,9.7l-1.2-0.2c0.1-1.8,0-3.1-0.2-3.8c-0.4-1.3-1.1-2.3-2.1-3.1c-0.9-0.7-2.2-1.3-3.9-1.6
	l-5.7-1.1l-6.1,31.4c-0.5,2.5-0.6,4.2-0.2,4.9c0.6,1,1.7,1.7,3.3,2l1.5,0.3l-0.2,1.1l-17.4-3.4l0.2-1.1l1.4,0.2
	c1.8,0.3,3.1,0.1,4-0.9c0.6-0.6,1-2,1.5-4.3l6.1-31.4l-4.9-1c-1.9-0.3-3.3-0.5-4.2-0.3c-1.1,0.2-2.2,0.7-3.2,1.7
	c-1,1-1.6,2.4-2.2,4.2l-1.1-0.2l2.3-9.6L327.3,574.7z"/>
<path class="st0" d="M392.9,573.2l0.1,1.1c-1.4,0.4-2.5,0.9-3.2,1.7c-1,1.1-1.8,2.7-2.5,4.8l-11.5,36.8l-1.1,0.1l-18.8-34.6
	c-1-1.7-1.6-2.8-2-3.2c-0.6-0.6-1.3-1.1-2.1-1.4c-0.8-0.3-1.8-0.5-3-0.4l-0.1-1.1l17-1.5l0.1,1.1c-1.9,0.4-3.1,0.9-3.6,1.4
	c-0.5,0.5-0.8,1.1-0.7,1.9c0.1,1,0.7,2.6,1.9,4.7L376,608l7.8-25c0.7-2.5,1.1-4.1,1-5c0-0.6-0.4-1.1-1-1.6c-0.6-0.5-1.7-0.8-3.1-0.9
	c0,0-0.3,0-0.6,0l0-1.1L392.9,573.2z"/>
<path class="st0" d="M405.2,572.2l4.3,15.9l8.9-2.4c2.3-0.6,3.8-1.4,4.3-2.3c0.8-1.2,1-2.9,0.5-5.3l1.1-0.3L428,592l-1.1,0.3
	c-0.8-1.9-1.4-3-1.8-3.5c-0.6-0.6-1.3-1-2.2-1.2c-0.9-0.2-2.3-0.1-3.9,0.4l-8.9,2.4l3.6,13.3c0.5,1.8,0.8,2.8,1.1,3.2
	c0.2,0.3,0.6,0.6,1.1,0.7c0.5,0.1,1.3,0,2.3-0.3l6.9-1.9c2.3-0.6,3.9-1.2,4.8-1.8c1-0.6,1.8-1.5,2.5-2.7c0.9-1.5,1.6-3.8,2.3-6.6
	l1.2-0.3l-0.8,11.1l-31.2,8.4l-0.3-1.1l1.5-0.4c0.9-0.3,1.8-0.8,2.5-1.4c0.6-0.5,0.8-1.1,0.9-1.8c0.1-0.7-0.2-2.1-0.7-4l-7-26.3
	c-0.7-2.5-1.3-4.1-2-4.5c-0.9-0.6-2.3-0.7-3.9-0.2l-1.4,0.4l-0.3-1.1l31.2-8.3l2.8,8.8l-1.2,0.3c-1-2-1.9-3.3-2.6-4
	c-0.7-0.7-1.6-1.1-2.7-1.2c-0.9-0.1-2.3,0.1-4.3,0.7L405.2,572.2z"/>
<path class="st0" d="M447,577.1c0.3-0.1,0.6-0.3,0.9-0.4c0.3-0.1,0.5-0.2,0.7-0.3c3.6-1.7,5.9-3.8,7-6.2c1.1-2.4,1.1-4.9,0-7.3
	c-1.1-2.4-2.8-3.9-4.9-4.7c-2.2-0.8-4.5-0.6-7,0.5c-1,0.5-2.4,1.4-4.1,2.6L447,577.1z M483.1,584.1l-10.2,4.7l-21.1-11.7
	c-1,0.5-1.7,0.8-2.3,1.1c-0.3,0.1-0.5,0.2-0.8,0.3c-0.3,0.1-0.6,0.2-1,0.4l5.2,11c1.1,2.4,2.1,3.7,2.8,4.1c1.1,0.5,2.3,0.4,3.8-0.3
	l1.5-0.7l0.5,1l-16.3,7.6l-0.5-1l1.5-0.7c1.6-0.8,2.5-1.8,2.7-3.2c0.1-0.8-0.3-2.3-1.4-4.4l-11.4-24.6c-1.1-2.3-2-3.7-2.9-4.1
	c-1-0.5-2.3-0.4-3.8,0.3l-1.4,0.7l-0.5-1l13.8-6.4c4-1.9,7.1-2.9,9.3-3.2c2.2-0.4,4.3,0,6.4,1c2.1,1,3.7,2.5,4.6,4.7
	c1.1,2.3,1.3,4.7,0.5,7.1c-0.8,2.4-2.5,4.8-5.3,7l12.9,7.2c2.9,1.7,5.2,2.7,6.9,2.8c1.7,0.2,3.6,0,5.7-0.8L483.1,584.1z"/>
<path class="st0" d="M501.6,570.4l0.7,0.9l-15.1,9.8l-0.6-1l1.3-0.8c1.4-0.9,2.2-2,2.3-3.3c0-0.9-0.6-2.4-1.9-4.4L473.5,549
	c-1.2-1.8-2.1-2.9-2.7-3.4c-0.4-0.3-1.1-0.4-1.8-0.3c-1,0-1.9,0.3-2.8,0.9l-1.2,0.8l-0.6-1l15-9.8l0.6,0.9l-1.2,0.8
	c-1.4,1-2.2,2-2.3,3.3c-0.1,0.8,0.5,2.3,2,4.4l14.7,22.7c1.2,1.7,2,2.9,2.6,3.3c0.5,0.3,1.1,0.5,1.8,0.5c1-0.1,1.9-0.4,2.7-1
	L501.6,570.4z"/>
<path class="st0" d="M509.3,511.5l6.7,7.2l-1,0.7c-1.3-1.2-2.3-1.9-3-2.2c-1.3-0.5-2.5-0.6-3.7-0.4c-1.1,0.3-2.4,1-3.7,2l-4.5,3.8
	l20.5,24.4c1.7,2,2.9,3.1,3.8,3.2c1.1,0.2,2.3-0.3,3.6-1.3l1.1-0.9l0.7,0.8l-13.6,11.4l-0.7-0.9l1.1-1c1.4-1.1,2-2.3,1.8-3.6
	c-0.1-0.8-0.8-2.1-2.3-3.9l-20.6-24.5l-3.8,3.2c-1.5,1.3-2.4,2.3-2.9,3c-0.6,1-0.8,2.2-0.7,3.5c0.1,1.4,0.8,2.8,1.8,4.3l-0.8,0.7
	l-6-7.8L509.3,511.5z"/>
<path class="st0" d="M541.9,512l-17.5-5.5l8.2,16.5L541.9,512z M544.2,512.8l-10.4,12.4l3.2,6.4c0.8,1.6,1.5,2.7,2.1,3.2
	c0.5,0.4,1.1,0.5,1.9,0.4c0.7-0.2,1.8-1,3.2-2.4l0.9,0.7l-8.5,10.1l-0.9-0.7c0.9-1.5,1.4-2.7,1.3-3.4c-0.1-1.4-0.9-3.6-2.4-6.5
	l-17-33.4l0.7-0.8l36,11.2c2.9,0.9,5,1.3,6.3,1.1c1.3-0.2,2.5-1,3.7-2.2l0.9,0.7l-10.6,12.6l-0.9-0.7c1-1.3,1.5-2.4,1.5-3.1
	c0-0.7-0.2-1.3-0.7-1.8c-0.7-0.6-2-1.2-4.1-1.8L544.2,512.8z"/>
<path class="st0" d="M544.6,462.1l12.2,7.7l-0.6,1c-2.5-1.2-4.7-1.8-6.6-1.9c-1.9,0-3.7,0.4-5.5,1.4c-1.7,1-3.1,2.3-4.1,3.9
	c-1.1,1.9-1.5,3.7-1.1,5.6c0.3,1.9,1.2,3.2,2.7,4.1c1,0.7,2.3,1,3.6,0.8c2-0.3,5.3-1.8,10-4.5c3.8-2.2,6.6-3.6,8.3-4.2
	c1.7-0.6,3.4-0.9,5.1-0.7c1.6,0.1,3.2,0.6,4.6,1.5c2.7,1.7,4.3,4.2,5,7.5c0.7,3.3,0,6.6-2.1,9.9c-0.6,1-1.4,2-2.1,2.8
	c-0.4,0.5-1.4,1.4-3.1,2.8c-1.6,1.3-2.6,2.2-2.8,2.7c-0.2,0.4-0.4,0.8-0.2,1.2c0.2,0.5,0.5,0.9,1.3,1.6l-0.6,0.9l-12.1-7.6l0.5-1
	c2.8,1.1,5.1,1.7,6.9,1.7c1.7,0,3.4-0.5,5.3-1.6c1.8-1,3.3-2.5,4.5-4.4c1.3-2.2,1.9-4.2,1.4-6.2c-0.3-2-1.3-3.5-2.9-4.5
	c-0.9-0.6-1.9-0.9-3-0.9c-1.2-0.1-2.5,0.1-3.9,0.6c-1,0.4-3.2,1.6-6.8,3.5c-3.6,2-6.3,3.3-8.2,3.9c-1.8,0.7-3.5,0.9-5.1,0.8
	c-1.6-0.1-3.1-0.6-4.5-1.5c-2.6-1.6-4.2-3.9-4.8-7.1c-0.6-3.1,0-6.1,1.9-9.2c1.1-1.9,2.9-3.6,5.1-5.1c1-0.7,1.7-1.3,2-1.6
	c0.3-0.5,0.4-0.9,0.3-1.4c-0.1-0.5-0.5-1-1.2-1.8L544.6,462.1z"/>
<path class="st0" d="M94.1,308.6l22.3,1.9l-0.2,1.8c-4.4,0.2-7.8,0.9-10.5,2.2c-2.7,1.3-4.9,3.2-6.6,5.8c-1.7,2.6-2.7,5.4-2.9,8.3
	c-0.3,3.3,0.5,6.1,2.3,8.5c1.8,2.3,4,3.6,6.6,3.8c1.9,0.2,3.8-0.3,5.5-1.5c2.6-1.8,6.2-6.2,10.8-13.2c3.8-5.7,6.7-9.6,8.5-11.6
	c1.9-2.1,4.1-3.6,6.5-4.6c2.4-1,4.9-1.4,7.5-1.2c4.9,0.4,8.9,2.7,12.1,6.8c3.2,4.1,4.5,9.1,4,15.1c-0.1,1.9-0.4,3.6-0.9,5.2
	c-0.3,1-1,3-2.2,6c-1.3,3-1.9,4.9-2,5.8c-0.1,0.8,0.1,1.4,0.5,1.9c0.4,0.5,1.4,0.9,2.9,1.3l-0.2,1.8l-22-1.9l0.1-1.8
	c4.7-0.4,8.3-1.2,10.7-2.4c2.4-1.2,4.5-3.2,6.3-5.9c1.8-2.8,2.7-5.9,3.1-9.3c0.3-4-0.4-7.2-2.3-9.6c-1.9-2.5-4.3-3.9-7.2-4.1
	c-1.5-0.2-3.2,0.1-4.9,0.9c-1.7,0.7-3.4,1.9-4.9,3.7c-1,1.1-3.4,4.3-6.9,9.5c-3.6,5.3-6.4,9-8.5,11.2c-2,2.2-4.2,3.7-6.5,4.8
	c-2.4,1-4.9,1.4-7.5,1.1c-4.7-0.4-8.5-2.5-11.5-6.4c-3-3.8-4.3-8.5-3.8-13.9c0.3-3.5,1.4-7,3.4-10.7c1-1.7,1.5-2.9,1.6-3.6
	c0.1-0.8-0.1-1.5-0.5-2.1c-0.5-0.5-1.4-1.1-2.9-1.5L94.1,308.6z"/>
<path class="st0" d="M151.2,258.2l-28.3,0.4l20,20.2L151.2,258.2z M155,258.2l-9.4,23.2l7.8,7.9c1.9,1.9,3.5,3.1,4.6,3.6
	c0.9,0.4,1.9,0.3,3-0.3c1-0.6,2.2-2.3,3.6-5.1l1.7,0.7l-7.7,18.9l-1.6-0.7c0.6-2.7,0.7-4.5,0.2-5.5c-0.8-2.1-3-4.9-6.6-8.5
	l-40.9-41.1l0.7-1.6l58.3-0.7c4.7-0.1,7.9-0.6,9.7-1.4c1.7-0.9,3.2-2.6,4.3-5l1.6,0.7l-9.6,23.7l-1.6-0.7c0.8-2.4,1.1-4.2,0.7-5.3
	c-0.3-1.1-1-1.9-2-2.3c-1.3-0.5-3.6-0.8-6.9-0.7L155,258.2z"/>
<path class="st0" d="M134.4,201.8l11.7-13l62.5,3l-27.7-25c-3-2.7-5.1-4-6.4-4c-1.8,0-3.5,0.9-5.2,2.8l-1.5,1.7l-1.3-1.2l15.1-16.7
	l1.3,1.2l-1.6,1.7c-1.8,2-2.5,4-2.1,6c0.3,1.2,1.8,3,4.5,5.4l40.5,36.5l-1.1,1.2l-67.3-3.1l29.7,26.7c2.9,2.6,5.1,4,6.4,4
	c1.8,0,3.6-0.9,5.2-2.8l1.6-1.7l1.3,1.2l-15.1,16.7l-1.3-1.1l1.5-1.7c1.8-2,2.5-4.1,2.1-6c-0.3-1.2-1.8-3.1-4.5-5.5l-33.4-30.1
	c-2.9-0.1-4.9,0-6.1,0.3c-1.2,0.2-2.6,0.9-4.4,1.9c-0.8,0.5-1.8,1.4-3.1,2.8L134.4,201.8z"/>
<path class="st0" d="M243,109.1l8.4,12.7l-1.5,0.9c-1.7-2.1-3.1-3.5-4.2-4.2c-1.8-1-3.6-1.6-5.5-1.5c-1.8,0.1-3.9,0.9-6.2,2.2
	l-7.8,4.7l25.4,42.4c2.1,3.4,3.7,5.3,5,5.7c1.7,0.5,3.7,0.1,5.8-1.2l1.9-1.2l0.8,1.5l-23.5,14.1l-0.9-1.5l2-1.2
	c2.3-1.4,3.6-3.1,3.7-5.1c0-1.3-0.8-3.4-2.7-6.5l-25.4-42.4l-6.7,4c-2.6,1.5-4.3,2.8-5.1,3.8c-1.1,1.4-1.7,3.1-1.9,5.2
	c-0.1,2.1,0.5,4.4,1.8,7l-1.6,0.9l-7.1-13.4L243,109.1z"/>
<path class="st0" d="M294.2,94.6c-5.6,1.4-9.6,4.6-11.9,9.7c-3,6.2-3.1,14.4-0.7,24.4c2.6,10.3,6.7,17.6,12.5,22.1
	c4.4,3.3,9.4,4.3,14.9,3c5.9-1.5,10.2-5,12.8-10.6c2.8-5.6,2.8-13.3,0.4-23.2c-2.7-10.8-6.8-18.2-12.4-22.4
	C305.4,94.1,300.2,93.1,294.2,94.6 M294.3,91c8.1-2,15.9-0.7,23.4,4c7.5,4.7,12.5,11.7,14.8,20.9c2.4,9.6,1.4,18.2-3.1,26
	c-4.4,7.8-11,12.8-19.6,14.9c-8.5,2.1-16.6,0.9-24-3.8c-7.4-4.7-12.3-11.9-14.7-21.7c-2.5-9.9-1.1-18.9,4.2-26.9
	C279.7,97.6,286.1,93.1,294.3,91"/>
<path class="st0" d="M423.8,92.9l-1.6,15.1l-1.8-0.3c0-2.7-0.2-4.7-0.6-5.9c-0.6-1.9-1.8-3.5-3.2-4.6c-1.5-1.1-3.5-1.9-6.2-2.4
	l-9-1.4l-7.8,48.8c-0.6,4-0.6,6.4,0.1,7.6c1,1.5,2.7,2.4,5.2,2.9l2.3,0.3l-0.3,1.7l-27.1-4.3l0.3-1.8l2.2,0.3c2.7,0.4,4.8,0,6.1-1.6
	c0.9-0.8,1.6-3.1,2.1-6.7l7.7-48.8l-7.7-1.2c-3-0.5-5.2-0.6-6.4-0.3c-1.7,0.3-3.3,1.2-4.8,2.7c-1.4,1.5-2.5,3.7-3.1,6.6l-1.8-0.3
	l3.1-14.9L423.8,92.9z"/>
<path class="st0" d="M474.8,116.6c-5.1-2.7-10.2-3-15.3-0.9c-6.4,2.7-12,8.6-16.9,17.6c-4.9,9.3-6.7,17.6-5.5,24.7
	c1.1,5.5,4.1,9.5,9.1,12.2c5.4,2.9,10.9,3.1,16.6,0.8c5.7-2.3,11-8,15.8-17c5.2-9.8,7.1-18.1,5.9-24.9
	C483.4,123.8,480.2,119.5,474.8,116.6 M477.2,114c7.4,4,12.3,10.2,14.8,18.7c2.4,8.5,1.4,17-3.1,25.4c-4.6,8.7-11.1,14.4-19.7,17.2
	c-8.5,2.8-16.7,2.1-24.4-1.9c-7.9-4.2-13-10.5-15.4-19c-2.3-8.4-1.2-17.1,3.5-25.9c4.8-9.1,11.9-14.8,21-17.3
	C462,109.1,469.7,110,477.2,114"/>
<path class="st0" d="M503.1,216.8l25.6-54.2l-33,27.8c-3.1,2.6-4.7,4.5-4.9,5.8c-0.2,1.8,0.4,3.6,2.1,5.6l1.4,1.8l-1.3,1.1
	l-14.4-17.3l1.3-1.1l1.5,1.7c1.8,2.1,3.6,3.1,5.6,2.9c1.3-0.1,3.2-1.3,6-3.7l32.4-27.2c2.2-1.8,3.6-3.4,4.1-4.7
	c0.5-0.9,0.5-2.1,0.2-3.4c-0.3-1.3-1.2-3-3-5l1.3-1.1l11.8,14l-23.7,50.5l53.6-14.8l11.8,14l-1.4,1.2l-1.4-1.7
	c-1.8-2.1-3.7-3.1-5.6-2.9c-1.3,0.1-3.3,1.3-6,3.7l-32.4,27.2c-3,2.5-4.7,4.5-4.8,5.8c-0.4,1.8,0.4,3.7,2,5.6l1.4,1.7l-1.3,1.1
	l-17.7-21.1l1.3-1.1l1.5,1.8c1.8,2.1,3.7,3.1,5.7,2.8c1.2-0.1,3.2-1.3,5.9-3.6l33.2-27.8L504.1,218L503.1,216.8z"/>
<path class="st0" d="M627.4,280.6l-20-8.3l-0.5-1.6l17.2-0.3L627.4,280.6z M569.1,285.5l21.5-18.5l-28.3-2.7L569.1,285.5z
	 M566.1,287.9l-7.7-23.8l-11.1-1c-2.7-0.2-4.7-0.2-5.8,0.2c-1,0.3-1.7,1-2.1,2.1c-0.4,1.1-0.2,3.2,0.6,6.2l-1.7,0.6l-6.3-19.4
	l1.7-0.5c1.3,2.4,2.4,3.9,3.4,4.4c1.9,1.1,5.4,1.8,10.5,2.3l57.7,5.2l0.5,1.6l-44.2,38.1c-3.6,3.1-5.7,5.5-6.5,7.3
	c-0.7,1.8-0.8,4-0.1,6.5l-1.6,0.6l-7.9-24.3l1.7-0.5c0.9,2.4,1.9,3.9,2.8,4.5c1,0.7,2,0.9,3,0.5c1.3-0.4,3.2-1.7,5.7-3.9
	L566.1,287.9z"/>
<path class="st0" d="M619.2,359.3l-22.4,0.4V358c4.2-0.6,7.7-1.7,10.1-3.3c2.5-1.5,4.6-3.6,6-6.4c1.5-2.8,2.2-5.6,2.1-8.5
	c-0.1-3.3-1.1-6-3.2-8.1c-2.1-2.1-4.4-3.2-6.9-3.1c-2,0-3.8,0.8-5.4,2.2c-2.3,2-5.4,6.7-9.2,14.2c-3.2,6.1-5.6,10.3-7.3,12.5
	c-1.6,2.3-3.7,4-6,5.2c-2.3,1.3-4.8,1.9-7.3,1.9c-4.9,0.1-9.2-1.7-12.8-5.4c-3.6-3.8-5.5-8.6-5.5-14.6c-0.1-1.8,0.1-3.6,0.4-5.3
	c0.1-1,0.7-3,1.6-6.2c1-3.1,1.4-5.1,1.4-5.9c0-0.8-0.3-1.4-0.7-1.9c-0.5-0.4-1.5-0.7-3-1l0-1.8l22.2-0.4l0,1.8
	c-4.6,0.9-8.1,2.1-10.4,3.5c-2.3,1.4-4.1,3.6-5.6,6.5c-1.4,2.9-2.2,6.1-2.1,9.6c0.1,4,1.2,7.1,3.3,9.3c2.1,2.3,4.7,3.4,7.5,3.3
	c1.6,0,3.2-0.5,4.8-1.4c1.7-0.9,3.1-2.3,4.5-4.2c1-1.3,2.9-4.7,5.9-10.3c3-5.6,5.5-9.6,7.2-12c1.8-2.4,3.8-4.2,6-5.4
	c2.2-1.3,4.7-1.9,7.3-2c4.7-0.1,8.7,1.6,12.1,5.1c3.5,3.5,5.2,8,5.3,13.5c0,3.4-0.7,7.1-2.4,11c-0.7,1.8-1.1,3-1.1,3.8
	c0,0.8,0.3,1.5,0.8,2c0.5,0.5,1.5,1,3.1,1.2V359.3z"/>
<path class="st0" d="M814.3,307.1c-4-2-4.3-2.9-4.3-10.6c0-13.8,1.3-25,1.6-29.7c0-2.9,0.7-4.6,2.3-4.6c1.7,0,2.7,1,2.7,3.2
	c0,2.3,0,6.3,1,10.2c4.6,20.5,26.4,27.7,45.8,27.7c28.7,0,43.6-16.2,43.6-37.3c0-20.2-10.9-29.7-36.7-48.9l-13.2-9.9
	c-31.4-23.4-41.6-40.6-41.6-60c0-33,26.1-52.8,64.4-52.8c11.5,0,23.1,1.7,29.9,3.3c5.6,1.3,8,1.3,10.3,1.3c2.3,0,2.9,0.3,2.9,1.9
	c0,1.3-1.2,10.6-1.2,29.7c0,4.3-0.4,6.3-2.3,6.3c-2,0-2.4-1.3-2.7-3.6c-0.3-3.3-2.6-10.9-4.3-13.8c-2-3.3-11.5-13.9-37.6-13.9
	c-21.1,0-38.6,10.6-38.6,30.4c0,17.8,8.9,28.1,37.6,47.6l8.2,5.6c35.3,24.1,47.5,43.6,47.5,67.6c0,16.5-6.3,34.3-27.1,47.9
	c-12.2,7.9-30.4,9.9-46.3,9.9C842.9,314.7,826.1,312.8,814.3,307.1"/>
<path class="st0" d="M1077.9,221.3c1.3,0,1.3-0.7,1-1.9l-28.7-76.9c-1.6-4.3-3.3-4.3-4.9,0l-27.1,76.9c-0.3,1.2,0,1.9,0.9,1.9
	H1077.9z M1045.6,104.5c3.6-9.2,5-10.8,6.9-10.8c2.9,0,4,3.9,6.9,10.2c5.3,11.9,51.8,127.7,69.6,170.3c10.6,25,18.5,28.7,24.8,30.7
	c4.3,1.3,8.6,1.6,11.6,1.6c1.6,0,3.6,0.7,3.6,2.3c0,1.7-3.3,2.3-6.6,2.3c-4.3,0-25.8,0-45.9-0.6c-5.6-0.4-10.2-0.4-10.2-2
	c0-1.3,0.6-1.3,1.9-2c1.6-0.6,4.6-3,2.6-7.6l-26-64.3c-0.7-1.3-1-1.7-2.7-1.7h-67c-1.3,0-2.3,0.6-3,2.3l-16.5,44.9
	c-2.7,6.9-4.3,13.8-4.3,18.8c0,5.6,4.9,7.6,9.9,7.6h2.6c2.3,0,3,1,3,2.3c0,1.7-1.7,2.3-4.3,2.3c-6.9,0-22.8-1-26.1-1
	c-2.9,0-17.5,1-29.4,1c-3.6,0-5.6-0.6-5.6-2.3c0-1.3,1.3-2.3,2.6-2.3c2,0,6.3-0.3,8.6-0.6c13.2-1.6,18.8-11.5,24.4-25.7
	L1045.6,104.5z"/>
<path class="st0" d="M1209.2,272.8c0.7,23.1,3.3,30,11.2,32c5.2,1.3,11.9,1.7,14.5,1.7c1.3,0,2.3,1,2.3,2.3c0,1.6-2,2.3-5.3,2.3
	c-16.5,0-28-1-30.7-1c-2.6,0-14.8,1-28.1,1c-2.9,0-4.6-0.3-4.6-2.3c0-1.3,1-2.3,2.3-2.3c2.3,0,7.6-0.4,11.9-1.7
	c7.3-2,8.3-9.6,8.3-35V109.1c0-11.2,1.7-14.2,4-14.2c3.3,0,8.3,5.6,11.2,8.6c4.6,4.6,46.9,49.5,91.7,95.7
	c28.7,29.7,59.8,63.1,68.7,72.3l-3-140.6c-0.3-18.2-2-24.5-10.9-26.1c-5.2-1-11.8-1.4-14.2-1.4c-1.9,0-2.3-1.6-2.3-2.6
	c0-1.7,2.3-2,5.6-2c13.2,0,27.1,0.6,30.4,0.6c3.3,0,12.9-0.6,24.8-0.6c2.9,0,5.3,0.3,5.3,2c0,1-1.3,2.6-3.3,2.6c-1.4,0-3.6,0-7,0.7
	c-9.5,2-10.2,7.6-10.2,24.5l-0.6,164.4c0,18.5-0.4,20.1-2.3,20.1c-3,0-6-2.3-22.1-17.1c-3-2.7-44.9-43.9-75.6-76
	c-33.7-35.3-66.3-69.6-75.3-79.5L1209.2,272.8z"/>
<path class="st0" d="M1525,229.6c0,27.1,0,49.2,1.3,60.7c1,8.3,2.3,13.5,11.2,14.9c3.9,0.6,10.6,1.3,13.2,1.3c2,0,2.3,1.3,2.3,2.3
	c0,1.3-1.3,2.3-4.6,2.3c-15.9,0-34.3-1-35.9-1c-1.4,0-21.5,1-30.1,1c-3.3,0-4.6-0.6-4.6-2.3c0-1,0.7-2,2.4-2c2.6,0,5.9-0.6,8.6-1.3
	c5.9-1.3,7.6-6.9,8.6-15.2c1.4-11.5,1.4-33.7,1.4-60.7V111.8l-41.9,0.6c-18.2,0.3-25.1,2.3-29.4,8.9c-3.3,4.9-3.6,7-4.6,8.9
	c-0.7,2.4-1.7,2.7-3,2.7c-0.6,0-2-0.7-2-2.3c0-3,6-28,6.3-30.3c0.7-1.7,1.9-5.3,2.9-5.3c2,0,4.9,2.3,12.9,3.3
	c8.3,1,19.5,1.4,22.8,1.4h109.6c9.5,0,16.1-0.7,20.8-1.4c4.3-0.7,6.9-1.3,8.3-1.3c1.3,0,1.3,1.6,1.3,3.3c0,8.6-1,28.7-1,32
	c0,2.3-1.3,3.7-2.6,3.7c-1.3,0-2-1-2.3-4.9l-0.3-3c-1-8.6-7.3-14.9-35-15.5l-36.3-0.6V229.6z"/>
<path class="st0" d="M1733.9,303.2c26.1,0,78.6-13.9,78.6-95c0-67.3-40.9-102.7-86.8-102.7c-48.5,0-83.5,30.4-83.5,91.5
	C1642.1,262.2,1681.4,303.2,1733.9,303.2 M1727.3,94.9c65.4,0,114.8,39.9,114.8,105.3c0,62.7-46.5,114.5-116.5,114.5
	c-79.6,0-113.5-59.7-113.5-110.2C1612.1,159.2,1647.1,94.9,1727.3,94.9"/>
<path class="st0" d="M899.8,513.5c0,26.8,0,48.6,1.3,60.1c1,8.1,2.3,13.4,11.2,14.7c3.9,0.7,10.4,1.3,13,1.3c2,0,2.3,1.3,2.3,2.3
	c0,1.3-1.3,2.3-4.6,2.3c-15.6,0-33.9-1-35.6-1c-1.3,0-21.2,1-29.7,1c-3.3,0-4.6-0.6-4.6-2.3c0-1,0.6-2,2.3-2c2.6,0,5.9-0.6,8.5-1.3
	c5.8-1.3,7.5-6.9,8.5-15c1.3-11.4,1.3-33.3,1.3-60.1V397l-41.5,0.7c-18,0.3-24.8,2.2-29,8.8c-3.3,4.9-3.6,6.8-4.6,8.8
	c-0.7,2.3-1.7,2.6-3,2.6c-0.6,0-1.9-0.7-1.9-2.3c0-2.9,5.9-27.7,6.2-30c0.7-1.6,2-5.3,2.9-5.3c2,0,5,2.3,12.8,3.3
	c8.2,1,19.3,1.4,22.5,1.4h108.4c9.5,0,16-0.7,20.5-1.4c4.2-0.6,6.8-1.3,8.2-1.3c1.3,0,1.3,1.7,1.3,3.3c0,8.5-1,28.4-1,31.6
	c0,2.3-1.3,3.6-2.6,3.6c-1.3,0-2-0.9-2.2-4.9l-0.4-2.9c-1-8.5-7.2-14.7-34.6-15.3l-35.9-0.7V513.5z"/>
<path class="st0" d="M1106.4,586.3c25.7,0,77.7-13.7,77.7-94c0-66.6-40.5-101.5-85.8-101.5c-48,0-82.6,30-82.6,90.5
	C1015.7,545.8,1054.5,586.3,1106.4,586.3 M1099.9,380.3c64.6,0,113.6,39.5,113.6,104.1c0,62-46,113.3-115.2,113.3
	c-78.7,0-112.3-59.1-112.3-109.1C985.9,444,1020.6,380.3,1099.9,380.3"/>
<path class="st0" d="M1461,558.2c1,9.8,2.9,24.8,14.7,28.7c8.2,2.6,15.7,2.6,18.6,2.6c1.3,0,2.3,0.7,2.3,2c0,1.6-2.6,2.6-5.8,2.6
	c-6.6,0-38.5-0.6-49-1.6c-6.9-0.6-8.2-1.6-8.2-3c0-1,0.7-1.9,2-2.3c1.6-0.4,1.9-4.6,1.3-9.8l-13.7-140.3h-0.6l-69.2,141.7
	c-5.9,12.1-7.5,14.7-10.1,14.7c-2.6,0-4.2-2.6-9.8-12.8c-7.5-13.7-26.4-49.3-33.7-64.3c-8.4-17.6-31.7-64.3-36.5-75.7h-1.3
	L1250.8,566c-0.3,4.2-0.3,9.5-0.3,14.1c0,4.2,2.6,6.8,6.8,7.8c4.9,1.3,9.1,1.6,11.1,1.6c1,0,2.3,1,2.3,2c0,2-1.9,2.6-5.2,2.6
	c-10.8,0-24.5-0.9-26.8-0.9c-2.6,0-16.3,0.9-24.1,0.9c-3,0-5-0.6-5-2.6c0-1,1.4-2,3-2c2.3,0,4.2-0.3,8.5-1
	c9.4-1.7,9.8-11.7,11.1-22.2l20.8-181.1c0.4-2.9,1.6-4.9,3.3-4.9c2,0,4.2,1,5.9,4.2l86.8,172.4l83.6-172c1.3-2.7,2.6-4.6,4.6-4.6
	c2,0,3.6,2.3,4.2,7.5L1461,558.2z"/>
<path class="st0" d="M1652,340.5c1.6,3,0,4-1.3,4c-1,0-4.3-0.7-9.8,0c-16.1,1.6-38.8,9.1-49.7,13.6c-2.3,1-4.2,1.7-4.8,1.7
	c-0.7,0-1.7-0.6-1.7-2c0-1,0.7-1.6,2.3-2.6c11.7-8.1,42.1-26.4,44.4-27.7c5.5-3.3,7.5-4.2,9.1-4.2c1,0,1.6,0.6,3.2,2.9
	C1646.1,329.4,1648.5,334,1652,340.5 M1626.6,505.4c1.3,0,1.3-0.7,1-1.9l-28.5-76.1c-1.6-4.2-3.2-4.2-4.8,0l-26.7,76.1
	c-0.4,1.3,0,1.9,1,1.9H1626.6z M1594.6,389.8c3.6-9.2,4.9-10.8,6.8-10.8c3,0,3.9,3.9,6.9,10.1c5.2,11.8,51.2,126.3,68.9,168.5
	c10.4,24.8,18.3,28.4,24.4,30.3c4.3,1.3,8.5,1.6,11.4,1.6c1.7,0,3.6,0.7,3.6,2.4c0,1.6-3.3,2.2-6.6,2.2c-4.2,0-25.5,0-45.4-0.6
	c-5.5-0.3-10.1-0.3-10.1-2c0-1.3,0.6-1.3,1.9-2c1.6-0.6,4.6-2.9,2.6-7.5l-25.8-63.6c-0.6-1.3-1-1.6-2.6-1.6h-66.3
	c-1.3,0-2.3,0.7-2.9,2.3l-16.4,44.4c-2.6,6.8-4.2,13.7-4.2,18.6c0,5.6,4.8,7.5,9.8,7.5h2.6c2.3,0,2.9,1,2.9,2.4
	c0,1.6-1.6,2.2-4.2,2.2c-6.9,0-22.6-1-25.8-1c-3,0-17.3,1-29.1,1c-3.6,0-5.5-0.6-5.5-2.2c0-1.4,1.3-2.4,2.6-2.4
	c1.9,0,6.2-0.3,8.4-0.6c13.1-1.6,18.6-11.4,24.2-25.4L1594.6,389.8z"/>
<path class="st0" d="M1723.2,590.2c-3.9-1.9-4.2-2.9-4.2-10.4c0-13.7,1.3-24.8,1.6-29.4c0-2.9,0.7-4.6,2.3-4.6c1.6,0,2.6,1,2.6,3.3
	s0,6.2,1,10.1c4.6,20.2,26.1,27.4,45.4,27.4c28.4,0,43.1-16,43.1-36.9c0-19.9-10.8-29.4-36.2-48.3l-13.1-9.8
	c-31-23.2-41.1-40.1-41.1-59.4c0-32.7,25.8-52.2,63.7-52.2c11.4,0,22.8,1.6,29.7,3.3c5.6,1.3,7.8,1.3,10.1,1.3c2.3,0,3,0.3,3,1.9
	c0,1.3-1.3,10.5-1.3,29.4c0,4.3-0.3,6.2-2.3,6.2c-1.9,0-2.3-1.3-2.6-3.6c-0.3-3.3-2.7-10.8-4.3-13.7c-1.9-3.3-11.4-13.7-37.2-13.7
	c-20.9,0-38.2,10.4-38.2,30c0,17.6,8.8,27.8,37.3,47l8.1,5.6c35,23.8,47,43.1,47,66.9c0,16.3-6.2,34-26.8,47.3
	c-12.1,7.8-30,9.7-45.7,9.7C1751.6,597.7,1734.9,595.8,1723.2,590.2"/>
<path class="st0" d="M1859.3,108.5h4.5c1.9,0,3.2,0.2,3.9,0.4c0.7,0.3,1.3,0.7,1.7,1.3c0.4,0.6,0.6,1.2,0.6,1.9
	c0,1.1-0.4,2.1-1.2,2.7c-0.9,0.6-2.4,1-4.7,1h-4.8V108.5z M1859.3,129.6v-10.3h2.3c1.4,0,2.4,0.2,3.2,0.8c1,0.8,2.4,2.6,4.1,5.7
	l2.2,3.8h4.8l-3-4.8c-1.4-2.3-2.6-3.9-3.6-4.8c-0.5-0.5-1.2-1-2-1.3c2-0.1,3.8-0.9,5-2.3c1.3-1.3,2-2.8,2-4.6c0-1.3-0.4-2.5-1.2-3.6
	c-0.8-1.1-1.8-1.9-3.1-2.4c-1.3-0.4-3.4-0.6-6.2-0.6h-8.4v24.4H1859.3z M1874.6,100.6c3,1.6,5.4,4,7.1,7c1.7,3.1,2.5,6.2,2.5,9.5
	c0,3.3-0.8,6.4-2.5,9.4c-1.7,3-4,5.3-7,7c-3,1.7-12,2.5-9.4,2.5c3.3,0-6.4-0.8-9.4-2.5c-3-1.7-5.3-4-7-7c-1.7-3-2.5-6.1-2.5-9.4
	c0-3.3,0.9-6.4,2.6-9.5c1.7-3,4-5.3,7.1-7c3-1.7,6.1-2.4,9.3-2.4C1868.5,98.2,1871.6,99,1874.6,100.6 M1854.2,97.3
	c-3.6,1.9-6.4,4.7-8.5,8.4c-2,3.6-3.1,7.4-3.1,11.4c0,3.9,1,7.7,3,11.2c2,3.7,4.8,6.4,8.4,8.4c3.6,2,7.3,3,11.3,3
	c3.9,0,7.7-1,11.3-3c3.6-2,6.4-4.8,8.4-8.4c1.9-3.6,3-7.4,3-11.2c0-4-1-7.8-3.1-11.4c-2-3.7-4.8-6.5-8.5-8.4
	c-3.6-1.9-7.3-2.9-11.1-2.9C1861.5,94.4,1857.8,95.4,1854.2,97.3"/>
</svg>
